<mxfile host="Electron" modified="2023-05-15T11:25:18.398Z" agent="Mozilla/5.0 (Windows NT 10.0; Win64; x64) AppleWebKit/537.36 (KHTML, like Gecko) draw.io/21.2.8 Chrome/112.0.5615.165 Electron/24.2.0 Safari/537.36" etag="LXSizj5we7jF_yCVAll9" version="21.2.8" type="device">
  <diagram name="Page-1" id="YpWVVZihGrBSJXwOBpHP">
    <mxGraphModel dx="1628" dy="1121" grid="1" gridSize="10" guides="1" tooltips="1" connect="1" arrows="1" fold="1" page="1" pageScale="1" pageWidth="827" pageHeight="1169" math="0" shadow="0">
      <root>
        <mxCell id="0" />
        <mxCell id="1" parent="0" />
        <mxCell id="uFAtMosG5yBuo42fv5vl-12" value="" style="shape=flexArrow;endArrow=classic;html=1;rounded=0;" parent="1" edge="1">
          <mxGeometry width="50" height="50" relative="1" as="geometry">
            <mxPoint x="40" y="270" as="sourcePoint" />
            <mxPoint x="1020" y="260" as="targetPoint" />
          </mxGeometry>
        </mxCell>
        <mxCell id="uFAtMosG5yBuo42fv5vl-15" value="" style="endArrow=classic;html=1;rounded=0;exitX=0.5;exitY=1;exitDx=0;exitDy=0;" parent="1" edge="1">
          <mxGeometry width="50" height="50" relative="1" as="geometry">
            <mxPoint x="85" y="150" as="sourcePoint" />
            <mxPoint x="140" y="260" as="targetPoint" />
          </mxGeometry>
        </mxCell>
        <mxCell id="uFAtMosG5yBuo42fv5vl-16" value="Blob detection" style="text;html=1;strokeColor=none;fillColor=none;align=center;verticalAlign=middle;whiteSpace=wrap;rounded=0;rotation=65;" parent="1" vertex="1">
          <mxGeometry x="70" y="180" width="100" height="30" as="geometry" />
        </mxCell>
        <mxCell id="uFAtMosG5yBuo42fv5vl-17" value="" style="rounded=1;whiteSpace=wrap;html=1;" parent="1" vertex="1">
          <mxGeometry x="197" y="50" width="100" height="50" as="geometry" />
        </mxCell>
        <mxCell id="uFAtMosG5yBuo42fv5vl-19" value="" style="endArrow=classic;html=1;rounded=0;entryX=0.5;entryY=1;entryDx=0;entryDy=0;" parent="1" target="uFAtMosG5yBuo42fv5vl-17" edge="1">
          <mxGeometry width="50" height="50" relative="1" as="geometry">
            <mxPoint x="160" y="260" as="sourcePoint" />
            <mxPoint x="220" y="100" as="targetPoint" />
          </mxGeometry>
        </mxCell>
        <mxCell id="uFAtMosG5yBuo42fv5vl-63" style="edgeStyle=orthogonalEdgeStyle;rounded=0;orthogonalLoop=1;jettySize=auto;html=1;exitX=1;exitY=0.5;exitDx=0;exitDy=0;entryX=0;entryY=0.5;entryDx=0;entryDy=0;" parent="1" source="uFAtMosG5yBuo42fv5vl-22" target="uFAtMosG5yBuo42fv5vl-39" edge="1">
          <mxGeometry relative="1" as="geometry" />
        </mxCell>
        <mxCell id="uFAtMosG5yBuo42fv5vl-22" value="Detect 3 balls with different color on pc with gpu" style="text;html=1;strokeColor=none;fillColor=none;align=center;verticalAlign=middle;whiteSpace=wrap;rounded=0;" parent="1" vertex="1">
          <mxGeometry x="197" y="60" width="100" height="30" as="geometry" />
        </mxCell>
        <mxCell id="uFAtMosG5yBuo42fv5vl-23" value="Display depth/ distance of the ball" style="text;html=1;strokeColor=none;fillColor=none;align=center;verticalAlign=middle;whiteSpace=wrap;rounded=0;" parent="1" vertex="1">
          <mxGeometry x="170" y="220" width="120" height="30" as="geometry" />
        </mxCell>
        <mxCell id="uFAtMosG5yBuo42fv5vl-24" value="Display x,y coordinates&amp;nbsp;" style="text;html=1;strokeColor=none;fillColor=none;align=center;verticalAlign=middle;whiteSpace=wrap;rounded=0;" parent="1" vertex="1">
          <mxGeometry x="200" y="170" width="80" height="30" as="geometry" />
        </mxCell>
        <mxCell id="uFAtMosG5yBuo42fv5vl-25" value="Display FPS" style="text;html=1;strokeColor=none;fillColor=none;align=center;verticalAlign=middle;whiteSpace=wrap;rounded=0;" parent="1" vertex="1">
          <mxGeometry x="230" y="125" width="70" height="30" as="geometry" />
        </mxCell>
        <mxCell id="uFAtMosG5yBuo42fv5vl-26" value="" style="endArrow=none;html=1;rounded=0;exitX=0;exitY=1;exitDx=0;exitDy=0;entryX=1;entryY=1;entryDx=0;entryDy=0;" parent="1" edge="1">
          <mxGeometry width="50" height="50" relative="1" as="geometry">
            <mxPoint x="230" y="150" as="sourcePoint" />
            <mxPoint x="300" y="150" as="targetPoint" />
          </mxGeometry>
        </mxCell>
        <mxCell id="uFAtMosG5yBuo42fv5vl-27" value="" style="endArrow=none;html=1;rounded=0;exitX=0;exitY=1;exitDx=0;exitDy=0;" parent="1" source="uFAtMosG5yBuo42fv5vl-24" edge="1">
          <mxGeometry width="50" height="50" relative="1" as="geometry">
            <mxPoint x="320" y="230" as="sourcePoint" />
            <mxPoint x="270" y="200" as="targetPoint" />
          </mxGeometry>
        </mxCell>
        <mxCell id="uFAtMosG5yBuo42fv5vl-28" value="" style="endArrow=none;html=1;rounded=0;exitX=0;exitY=1;exitDx=0;exitDy=0;entryX=0.911;entryY=0.999;entryDx=0;entryDy=0;entryPerimeter=0;" parent="1" source="uFAtMosG5yBuo42fv5vl-23" target="uFAtMosG5yBuo42fv5vl-23" edge="1">
          <mxGeometry width="50" height="50" relative="1" as="geometry">
            <mxPoint x="320" y="230" as="sourcePoint" />
            <mxPoint x="270" y="250" as="targetPoint" />
          </mxGeometry>
        </mxCell>
        <mxCell id="uFAtMosG5yBuo42fv5vl-29" value="Python with OpenCV" style="text;html=1;strokeColor=none;fillColor=none;align=center;verticalAlign=middle;whiteSpace=wrap;rounded=0;" parent="1" vertex="1">
          <mxGeometry x="20" y="220" width="60" height="30" as="geometry" />
        </mxCell>
        <mxCell id="uFAtMosG5yBuo42fv5vl-35" value="&amp;nbsp;≈80h" style="text;html=1;strokeColor=none;fillColor=none;align=center;verticalAlign=middle;whiteSpace=wrap;rounded=0;rotation=-60;" parent="1" vertex="1">
          <mxGeometry x="190" y="155" width="20" height="20" as="geometry" />
        </mxCell>
        <mxCell id="uFAtMosG5yBuo42fv5vl-38" value="" style="rounded=1;whiteSpace=wrap;html=1;fillColor=#1ba1e2;fontColor=#ffffff;strokeColor=#006EAF;" parent="1" vertex="1">
          <mxGeometry x="350" y="45" width="110" height="55" as="geometry" />
        </mxCell>
        <mxCell id="uFAtMosG5yBuo42fv5vl-39" value="Test code på pi4" style="text;html=1;strokeColor=none;fillColor=none;align=center;verticalAlign=middle;whiteSpace=wrap;rounded=0;" parent="1" vertex="1">
          <mxGeometry x="350" y="57.5" width="110" height="30" as="geometry" />
        </mxCell>
        <mxCell id="uFAtMosG5yBuo42fv5vl-40" value="" style="endArrow=classic;html=1;rounded=0;exitX=0.375;exitY=1.096;exitDx=0;exitDy=0;exitPerimeter=0;" parent="1" source="uFAtMosG5yBuo42fv5vl-38" edge="1">
          <mxGeometry width="50" height="50" relative="1" as="geometry">
            <mxPoint x="350" y="280" as="sourcePoint" />
            <mxPoint x="440" y="260" as="targetPoint" />
          </mxGeometry>
        </mxCell>
        <mxCell id="uFAtMosG5yBuo42fv5vl-42" value="&amp;nbsp;≈10h" style="text;html=1;strokeColor=none;fillColor=none;align=center;verticalAlign=middle;whiteSpace=wrap;rounded=0;rotation=75;" parent="1" vertex="1">
          <mxGeometry x="370" y="155" width="60" height="30" as="geometry" />
        </mxCell>
        <mxCell id="uFAtMosG5yBuo42fv5vl-43" value="Too computationally expensive" style="text;html=1;strokeColor=none;fillColor=none;align=center;verticalAlign=middle;whiteSpace=wrap;rounded=0;" parent="1" vertex="1">
          <mxGeometry x="410" y="155" width="110" height="30" as="geometry" />
        </mxCell>
        <mxCell id="uFAtMosG5yBuo42fv5vl-45" value="" style="shape=flexArrow;endArrow=classic;html=1;rounded=0;" parent="1" edge="1">
          <mxGeometry width="50" height="50" relative="1" as="geometry">
            <mxPoint x="40" y="410" as="sourcePoint" />
            <mxPoint x="1020" y="410" as="targetPoint" />
            <Array as="points">
              <mxPoint x="130" y="410" />
            </Array>
          </mxGeometry>
        </mxCell>
        <mxCell id="uFAtMosG5yBuo42fv5vl-46" value="" style="endArrow=classic;html=1;rounded=0;" parent="1" edge="1">
          <mxGeometry width="50" height="50" relative="1" as="geometry">
            <mxPoint x="410" y="280" as="sourcePoint" />
            <mxPoint x="140" y="400" as="targetPoint" />
          </mxGeometry>
        </mxCell>
        <mxCell id="uFAtMosG5yBuo42fv5vl-47" value="Take a step back and write a&amp;nbsp;less computationally expensive&amp;nbsp;&lt;br&gt;&amp;nbsp;" style="text;html=1;strokeColor=none;fillColor=none;align=center;verticalAlign=middle;whiteSpace=wrap;rounded=0;rotation=-25;" parent="1" vertex="1">
          <mxGeometry x="210" y="310" width="210" height="90" as="geometry" />
        </mxCell>
        <mxCell id="uFAtMosG5yBuo42fv5vl-48" value="" style="rounded=1;whiteSpace=wrap;html=1;" parent="1" vertex="1">
          <mxGeometry x="230" y="550" width="100" height="50" as="geometry" />
        </mxCell>
        <mxCell id="uFAtMosG5yBuo42fv5vl-66" style="edgeStyle=orthogonalEdgeStyle;rounded=0;orthogonalLoop=1;jettySize=auto;html=1;exitX=1;exitY=0.5;exitDx=0;exitDy=0;" parent="1" source="uFAtMosG5yBuo42fv5vl-49" target="uFAtMosG5yBuo42fv5vl-64" edge="1">
          <mxGeometry relative="1" as="geometry" />
        </mxCell>
        <mxCell id="uFAtMosG5yBuo42fv5vl-49" value="Detect 3 balls with different color on pc with gpu" style="text;html=1;strokeColor=none;fillColor=none;align=center;verticalAlign=middle;whiteSpace=wrap;rounded=0;" parent="1" vertex="1">
          <mxGeometry x="230" y="560" width="100" height="30" as="geometry" />
        </mxCell>
        <mxCell id="uFAtMosG5yBuo42fv5vl-50" value="" style="endArrow=classic;html=1;rounded=0;entryX=0.167;entryY=-0.118;entryDx=0;entryDy=0;entryPerimeter=0;" parent="1" target="uFAtMosG5yBuo42fv5vl-48" edge="1">
          <mxGeometry width="50" height="50" relative="1" as="geometry">
            <mxPoint x="150" y="420" as="sourcePoint" />
            <mxPoint x="380" y="360" as="targetPoint" />
            <Array as="points" />
          </mxGeometry>
        </mxCell>
        <mxCell id="uFAtMosG5yBuo42fv5vl-53" value="Display depth/ distance of the ball" style="text;html=1;strokeColor=none;fillColor=none;align=center;verticalAlign=middle;whiteSpace=wrap;rounded=0;" parent="1" vertex="1">
          <mxGeometry x="232" y="500" width="120" height="30" as="geometry" />
        </mxCell>
        <mxCell id="uFAtMosG5yBuo42fv5vl-54" value="Display x,y coordinates&amp;nbsp;" style="text;html=1;strokeColor=none;fillColor=none;align=center;verticalAlign=middle;whiteSpace=wrap;rounded=0;" parent="1" vertex="1">
          <mxGeometry x="211" y="464" width="80" height="30" as="geometry" />
        </mxCell>
        <mxCell id="uFAtMosG5yBuo42fv5vl-55" value="" style="endArrow=none;html=1;rounded=0;exitX=0;exitY=1;exitDx=0;exitDy=0;entryX=1;entryY=1;entryDx=0;entryDy=0;" parent="1" source="uFAtMosG5yBuo42fv5vl-54" target="uFAtMosG5yBuo42fv5vl-54" edge="1">
          <mxGeometry width="50" height="50" relative="1" as="geometry">
            <mxPoint x="230" y="530" as="sourcePoint" />
            <mxPoint x="180" y="500" as="targetPoint" />
          </mxGeometry>
        </mxCell>
        <mxCell id="uFAtMosG5yBuo42fv5vl-56" value="" style="endArrow=none;html=1;rounded=0;exitX=0.05;exitY=1;exitDx=0;exitDy=0;exitPerimeter=0;" parent="1" source="uFAtMosG5yBuo42fv5vl-53" edge="1">
          <mxGeometry width="50" height="50" relative="1" as="geometry">
            <mxPoint x="270" y="540" as="sourcePoint" />
            <mxPoint x="340" y="530" as="targetPoint" />
          </mxGeometry>
        </mxCell>
        <mxCell id="uFAtMosG5yBuo42fv5vl-57" value="Display FPS" style="text;html=1;strokeColor=none;fillColor=none;align=center;verticalAlign=middle;whiteSpace=wrap;rounded=0;" parent="1" vertex="1">
          <mxGeometry x="182" y="420" width="70" height="30" as="geometry" />
        </mxCell>
        <mxCell id="uFAtMosG5yBuo42fv5vl-58" value="" style="endArrow=none;html=1;rounded=0;exitX=0;exitY=1;exitDx=0;exitDy=0;entryX=1;entryY=1;entryDx=0;entryDy=0;" parent="1" edge="1">
          <mxGeometry width="50" height="50" relative="1" as="geometry">
            <mxPoint x="189" y="450" as="sourcePoint" />
            <mxPoint x="259" y="450" as="targetPoint" />
          </mxGeometry>
        </mxCell>
        <mxCell id="uFAtMosG5yBuo42fv5vl-59" value="25h" style="text;html=1;strokeColor=none;fillColor=none;align=center;verticalAlign=middle;whiteSpace=wrap;rounded=0;rotation=45;" parent="1" vertex="1">
          <mxGeometry x="150" y="470" width="60" height="30" as="geometry" />
        </mxCell>
        <mxCell id="uFAtMosG5yBuo42fv5vl-61" value="" style="rounded=1;whiteSpace=wrap;html=1;" parent="1" vertex="1">
          <mxGeometry x="30" y="30" width="140" height="100" as="geometry" />
        </mxCell>
        <mxCell id="uFAtMosG5yBuo42fv5vl-62" value="&#xa;&lt;span style=&quot;color: rgb(0, 0, 0); font-family: Helvetica; font-size: 12px; font-style: normal; font-variant-ligatures: normal; font-variant-caps: normal; font-weight: 400; letter-spacing: normal; orphans: 2; text-align: center; text-indent: 0px; text-transform: none; widows: 2; word-spacing: 0px; -webkit-text-stroke-width: 0px; background-color: rgb(251, 251, 251); text-decoration-thickness: initial; text-decoration-style: initial; text-decoration-color: initial; float: none; display: inline !important;&quot;&gt;Choose algorithm for image processing&lt;/span&gt;&#xa;&#xa;" style="text;html=1;strokeColor=none;fillColor=none;align=center;verticalAlign=middle;whiteSpace=wrap;rounded=0;" parent="1" vertex="1">
          <mxGeometry x="42.5" y="70" width="115" height="30" as="geometry" />
        </mxCell>
        <mxCell id="uFAtMosG5yBuo42fv5vl-67" style="edgeStyle=orthogonalEdgeStyle;rounded=0;orthogonalLoop=1;jettySize=auto;html=1;exitX=0.5;exitY=0;exitDx=0;exitDy=0;" parent="1" source="uFAtMosG5yBuo42fv5vl-64" edge="1">
          <mxGeometry relative="1" as="geometry">
            <mxPoint x="444.73913043478274" y="547.217391304348" as="targetPoint" />
          </mxGeometry>
        </mxCell>
        <mxCell id="uFAtMosG5yBuo42fv5vl-64" value="" style="rounded=1;whiteSpace=wrap;html=1;fillColor=#1ba1e2;fontColor=#ffffff;strokeColor=#006EAF;" parent="1" vertex="1">
          <mxGeometry x="390" y="547.5" width="110" height="55" as="geometry" />
        </mxCell>
        <mxCell id="uFAtMosG5yBuo42fv5vl-65" value="Test code på pi4" style="text;html=1;strokeColor=none;fillColor=none;align=center;verticalAlign=middle;whiteSpace=wrap;rounded=0;" parent="1" vertex="1">
          <mxGeometry x="390" y="560" width="110" height="30" as="geometry" />
        </mxCell>
        <mxCell id="uFAtMosG5yBuo42fv5vl-68" value="" style="endArrow=classic;html=1;rounded=0;" parent="1" edge="1">
          <mxGeometry width="50" height="50" relative="1" as="geometry">
            <mxPoint x="450" y="547.5" as="sourcePoint" />
            <mxPoint x="540" y="420" as="targetPoint" />
            <Array as="points" />
          </mxGeometry>
        </mxCell>
        <mxCell id="gAaBRrjh9Kp5CMRJKEtw-1" value="&lt;b&gt;&lt;font style=&quot;font-size: 13px;&quot;&gt;1&lt;/font&gt;&lt;/b&gt;" style="text;html=1;strokeColor=none;fillColor=none;align=center;verticalAlign=middle;whiteSpace=wrap;rounded=0;" parent="1" vertex="1">
          <mxGeometry x="4" y="210" width="30" height="20" as="geometry" />
        </mxCell>
        <mxCell id="gAaBRrjh9Kp5CMRJKEtw-2" value="&lt;b&gt;&lt;font style=&quot;font-size: 13px;&quot;&gt;2&lt;/font&gt;&lt;/b&gt;" style="text;html=1;strokeColor=none;fillColor=none;align=center;verticalAlign=middle;whiteSpace=wrap;rounded=0;" parent="1" vertex="1">
          <mxGeometry x="83" y="9" width="30" height="20" as="geometry" />
        </mxCell>
        <mxCell id="gAaBRrjh9Kp5CMRJKEtw-3" value="&lt;b&gt;&lt;font style=&quot;font-size: 13px;&quot;&gt;3&lt;/font&gt;&lt;/b&gt;" style="text;html=1;strokeColor=none;fillColor=none;align=center;verticalAlign=middle;whiteSpace=wrap;rounded=0;" parent="1" vertex="1">
          <mxGeometry x="232" y="27" width="30" height="20" as="geometry" />
        </mxCell>
        <mxCell id="gAaBRrjh9Kp5CMRJKEtw-4" value="&lt;b&gt;&lt;font style=&quot;font-size: 13px;&quot;&gt;5&lt;/font&gt;&lt;/b&gt;" style="text;html=1;strokeColor=none;fillColor=none;align=center;verticalAlign=middle;whiteSpace=wrap;rounded=0;" parent="1" vertex="1">
          <mxGeometry x="250" y="310" width="30" height="20" as="geometry" />
        </mxCell>
        <mxCell id="gAaBRrjh9Kp5CMRJKEtw-5" value="&lt;b&gt;&lt;font style=&quot;font-size: 13px;&quot;&gt;6&lt;/font&gt;&lt;/b&gt;" style="text;html=1;strokeColor=none;fillColor=none;align=center;verticalAlign=middle;whiteSpace=wrap;rounded=0;" parent="1" vertex="1">
          <mxGeometry x="260" y="610" width="30" height="20" as="geometry" />
        </mxCell>
        <mxCell id="gAaBRrjh9Kp5CMRJKEtw-6" value="&lt;b&gt;&lt;font style=&quot;font-size: 13px;&quot;&gt;7&lt;/font&gt;&lt;/b&gt;" style="text;html=1;strokeColor=none;fillColor=none;align=center;verticalAlign=middle;whiteSpace=wrap;rounded=0;" parent="1" vertex="1">
          <mxGeometry x="428" y="610" width="30" height="20" as="geometry" />
        </mxCell>
        <mxCell id="gAaBRrjh9Kp5CMRJKEtw-10" value="&lt;b&gt;&lt;font style=&quot;font-size: 13px;&quot;&gt;4&lt;/font&gt;&lt;/b&gt;" style="text;html=1;strokeColor=none;fillColor=none;align=center;verticalAlign=middle;whiteSpace=wrap;rounded=0;" parent="1" vertex="1">
          <mxGeometry x="380" y="27" width="30" height="20" as="geometry" />
        </mxCell>
        <mxCell id="EbJVGA68E-LRwI5Z2B4P-1" value="" style="ellipse;whiteSpace=wrap;html=1;aspect=fixed;" vertex="1" parent="1">
          <mxGeometry x="1190" y="87.5" width="80" height="80" as="geometry" />
        </mxCell>
      </root>
    </mxGraphModel>
  </diagram>
</mxfile>
